<?xml version="1.0" standalone="no"?>
<!DOCTYPE svg PUBLIC "-//W3C//DTD SVG 20010904//EN"
 "http://www.w3.org/TR/2001/REC-SVG-20010904/DTD/svg10.dtd">
<svg version="1.0" xmlns="http://www.w3.org/2000/svg"
 width="1102.000000pt" height="1102.000000pt" viewBox="0 0 1102.000000 1102.000000"
 preserveAspectRatio="xMidYMid meet">
<metadata>
Created by potrace 1.14, written by Peter Selinger 2001-2017
</metadata>
<g transform="translate(0.000000,1102.000000) scale(0.100000,-0.100000)"
fill="#000000" stroke="none">
<path d="M2349 11018 c-1 -2 -2 -88 -3 -192 l-1 -188 25 -18 c54 -38 230 -104
375 -140 39 -10 84 -24 100 -31 17 -7 33 -13 38 -14 4 -2 9 -4 12 -5 3 -1 8
-3 13 -4 40 -11 163 -86 198 -122 27 -26 80 -126 88 -165 3 -13 10 -42 15 -64
11 -43 15 -69 27 -155 12 -87 24 -312 27 -502 2 -89 1 -97 -18 -100 -11 -2
-275 -3 -587 -3 l-568 0 0 -1662 0 -1663 208 0 209 0 13 25 c7 14 17 25 22 25
4 0 8 6 8 13 0 8 9 22 20 32 11 10 20 22 20 26 0 5 15 32 33 61 32 51 85 156
125 248 33 76 127 340 137 383 5 21 15 54 51 162 14 44 27 85 28 90 11 51 19
82 24 90 4 6 7 15 8 20 3 22 77 235 107 310 29 74 135 295 154 322 10 14 8
-4519 -2 -4732 -6 -143 -10 -200 -14 -200 -1 0 -4 -29 -6 -65 -6 -97 -31 -216
-57 -267 -29 -58 -88 -125 -136 -154 -20 -13 -40 -28 -44 -33 -4 -6 -8 -8 -8
-3 0 4 -10 1 -22 -7 -18 -11 -244 -94 -263 -96 -3 0 -6 0 -7 -1 -7 -2 -35 -8
-64 -13 -89 -17 -263 -91 -281 -120 -9 -13 -11 -376 -3 -381 4 -2 31 -4 61 -5
84 -1 272 -2 289 -2 8 1 134 1 280 0 146 0 272 0 280 1 8 0 62 0 120 0 58 -1
111 -1 118 0 20 2 36 2 67 2 17 -1 37 0 45 0 8 0 116 0 240 0 124 0 232 0 240
1 8 0 62 0 120 -1 58 0 112 0 120 0 15 1 327 0 481 -1 l87 -1 0 3521 c0 1937
2 3524 5 3527 3 3 73 7 156 8 82 2 154 6 159 9 5 3 12 3 16 -1 8 -8 68 -8 89
0 10 4 17 3 17 -1 0 -4 54 -7 119 -8 l119 -1 -2 271 -1 271 -332 0 c-182 0
-334 3 -338 7 -4 4 -7 387 -7 852 l0 846 -1274 0 c-701 0 -1275 -1 -1275 -2z"/>
<path d="M6125 9310 c-1 -3 -2 -18 -1 -35 1 -16 -2 -40 -6 -51 -4 -12 -4 -25
-1 -28 8 -8 7 -572 -1 -584 -4 -6 -3 -13 2 -16 5 -3 7 -20 5 -38 -4 -35 -4
-87 1 -128 1 -14 -1 -35 -6 -47 -4 -12 -4 -24 1 -27 4 -3 6 -22 3 -43 -2 -21
-3 -42 -3 -48 4 -110 2 -606 -3 -613 -3 -6 -3 -13 2 -16 5 -3 7 -20 5 -38 -4
-35 -4 -87 1 -128 1 -14 -1 -35 -6 -47 -4 -12 -4 -24 1 -27 4 -3 6 -22 3 -43
-2 -21 -3 -42 -3 -48 4 -102 2 -245 -3 -253 -3 -6 -3 -13 2 -16 7 -4 8 -69 2
-101 -1 -5 -1 -12 0 -15 6 -16 4 -60 -3 -60 -4 0 -5 -6 -1 -12 10 -16 11 -75
2 -110 -3 -16 -3 -28 1 -28 8 0 6 -84 -3 -99 -4 -5 -3 -12 1 -14 9 -6 8 -158
0 -181 -4 -9 -3 -18 2 -20 6 -4 7 -71 1 -101 -1 -5 -1 -12 0 -15 6 -16 4 -60
-3 -60 -4 0 -5 -6 -1 -12 10 -16 11 -75 2 -110 -3 -16 -3 -28 1 -28 8 0 6 -84
-3 -99 -4 -5 -3 -12 1 -14 9 -6 8 -158 0 -181 -4 -9 -3 -18 2 -20 6 -4 7 -71
1 -101 -1 -5 -1 -12 0 -15 6 -16 4 -60 -3 -60 -4 0 -5 -6 -1 -12 10 -16 11
-75 2 -110 -3 -16 -3 -28 1 -28 8 0 6 -84 -3 -99 -4 -5 -3 -12 1 -14 9 -6 8
-158 0 -181 -4 -9 -3 -18 2 -20 6 -4 7 -71 1 -101 -1 -5 -1 -12 0 -15 6 -16 4
-60 -3 -60 -4 0 -5 -6 -1 -12 10 -16 11 -75 2 -110 -3 -16 -3 -28 1 -28 6 0 7
-65 1 -95 -1 -5 -1 -14 0 -20 5 -25 2 -214 -4 -223 -3 -6 -3 -13 2 -16 5 -3 7
-20 5 -38 -4 -35 -4 -87 1 -128 1 -14 -1 -35 -6 -47 -4 -12 -4 -24 1 -27 4 -3
6 -22 3 -43 -2 -21 -3 -42 -3 -48 4 -110 2 -606 -3 -613 -3 -6 -3 -13 2 -16 5
-3 7 -20 5 -38 -4 -35 -4 -87 1 -128 1 -14 -1 -35 -6 -47 -4 -12 -4 -24 1 -27
4 -3 6 -22 3 -43 -2 -21 -3 -42 -3 -48 4 -110 2 -606 -3 -613 -3 -6 -3 -13 2
-16 5 -3 7 -20 5 -38 -2 -18 -3 -51 -2 -73 2 -69 0 -128 -6 -134 -12 -12 -502
-20 -608 -11 -49 5 -60 3 -68 -12 -5 -10 -6 -18 -2 -18 4 0 7 -66 5 -147 -3
-168 -3 -152 -1 -235 1 -35 0 -67 -1 -73 -8 -33 1 -55 23 -54 12 0 165 0 340
0 296 -1 317 -2 318 -18 1 -10 2 -27 3 -38 0 -11 -2 -30 -6 -41 -4 -12 -4 -25
-1 -28 7 -7 12 -57 6 -68 -2 -3 -5 -75 -8 -160 -3 -84 -7 -166 -9 -183 -2 -16
-7 -59 -11 -95 -4 -36 -9 -74 -11 -85 -2 -11 -7 -37 -9 -58 -11 -77 -55 -161
-115 -217 -45 -42 -84 -70 -96 -70 -7 0 -14 -3 -16 -7 -9 -22 -275 -114 -368
-128 -8 -1 -22 -5 -30 -7 -8 -3 -34 -11 -57 -17 -22 -6 -57 -18 -77 -26 -20
-8 -37 -15 -38 -14 -4 2 -101 -52 -111 -61 -5 -4 -8 -41 -8 -81 2 -96 2 -99 0
-164 -1 -31 1 -58 4 -62 4 -3 2 -13 -2 -22 -5 -9 -5 -25 -1 -36 7 -20 15 -20
1756 -19 962 1 1751 2 1754 3 4 1 5 310 1 372 -2 31 -175 105 -361 155 -180
48 -301 103 -391 176 -25 20 -66 97 -87 164 -37 113 -77 427 -73 564 1 16 0
44 -3 165 -1 44 0 85 2 92 4 12 55 14 262 12 58 -1 112 -1 120 -1 8 1 98 1
200 1 102 -1 192 -1 200 0 8 0 62 0 120 0 58 -1 112 -1 120 0 8 0 45 1 83 0
l67 0 -2 1663 -3 1663 -204 0 -203 0 -39 -55 c-21 -30 -42 -60 -46 -65 -18
-24 -57 -97 -105 -195 -27 -58 -55 -114 -61 -125 -26 -50 -228 -660 -241 -730
-1 -5 -5 -16 -9 -22 -5 -7 -6 -13 -2 -13 3 0 -1 -13 -10 -30 -9 -17 -13 -30
-10 -30 3 0 -1 -16 -9 -35 -8 -19 -12 -35 -9 -35 3 0 1 -6 -4 -12 -5 -7 -17
-35 -27 -63 -20 -56 -22 -62 -65 -158 -17 -38 -31 -73 -31 -78 0 -5 -4 -9 -10
-9 -5 0 -10 -6 -10 -13 0 -20 -64 -140 -71 -133 -2 2 -3 71 -1 153 1 81 2 164
1 183 -4 112 -3 222 3 226 3 2 3 17 -1 32 -3 15 -6 68 -4 117 3 129 3 140 0
238 -1 49 1 91 5 93 3 2 3 17 -1 32 -3 15 -6 68 -4 117 3 129 3 140 0 238 -1
49 1 91 5 93 3 2 3 17 -1 32 -3 15 -6 68 -4 117 3 129 3 140 0 238 -1 49 1 91
5 93 3 2 3 17 -1 32 -3 15 -6 68 -4 117 3 129 3 140 0 238 -1 49 1 91 5 93 3
2 3 17 0 32 -6 22 -7 130 -3 397 1 17 0 70 -2 118 -1 49 1 91 5 93 3 2 3 17
-1 32 -3 15 -6 68 -4 117 3 129 3 140 0 238 -1 49 1 91 5 93 3 2 3 17 -1 32
-3 15 -6 68 -4 117 3 129 3 140 0 238 -1 49 1 91 5 93 3 2 3 17 -1 32 -3 15
-6 68 -4 117 3 121 3 141 0 205 -1 30 1 60 6 67 4 6 4 14 -1 17 -4 2 -7 20 -6
38 2 18 5 94 8 168 3 74 8 155 11 180 2 25 6 68 9 95 14 142 40 234 82 298 23
35 90 107 100 107 2 0 25 14 51 30 26 17 68 37 93 45 25 7 70 23 100 34 30 11
109 34 175 51 136 35 284 102 286 128 4 61 3 365 -1 371 -6 8 -2540 9 -2545 1z"/>
</g>
</svg>
