<svg width="32" height="32" viewBox="0 0 32 32" fill="none" xmlns="http://www.w3.org/2000/svg">
<path d="M18.266 26.0681L26.105 18.2141L30.574 22.6931C31.4667 23.5862 31.9681 24.7973 31.9681 26.0601C31.9681 27.3228 31.4667 28.5339 30.574 29.4271L29.47 30.5311C29.0285 30.9744 28.5038 31.3261 27.926 31.5662C27.3482 31.8062 26.7287 31.9297 26.103 31.9297C25.4773 31.9297 24.8578 31.8062 24.28 31.5662C23.7022 31.3261 23.1775 30.9744 22.736 30.5311L18.266 26.0681ZM30.563 2.53106L29.454 1.42706C28.5609 0.534405 27.3498 0.032959 26.087 0.032959C24.8243 0.032959 23.6132 0.534405 22.72 1.42706L16.001 8.16106L9.26701 1.42706C8.37386 0.534405 7.16277 0.032959 5.90001 0.032959C4.63725 0.032959 3.42617 0.534405 2.53301 1.42706L1.42901 2.53106C0.536358 3.42422 0.0349121 4.6353 0.0349121 5.89806C0.0349121 7.16082 0.536358 8.3719 1.42901 9.26506L8.16301 15.9991L1.42901 22.7331C0.536358 23.6262 0.0349121 24.8373 0.0349121 26.1001C0.0349121 27.3628 0.536358 28.5739 1.42901 29.4671L2.53301 30.5711C3.42617 31.4637 4.63725 31.9652 5.90001 31.9652C7.16277 31.9652 8.37386 31.4637 9.26701 30.5711L30.574 9.26406C31.4667 8.3709 31.9681 7.15982 31.9681 5.89706C31.9681 4.6343 31.4667 3.42322 30.574 2.53006L30.563 2.53106Z" fill="black"/>
</svg>
