<svg width="800" height="800" viewBox="0 0 800 800" fill="none" xmlns="http://www.w3.org/2000/svg">
<path d="M735.7 0H64.3C28.8 0 0 28.8 0 64.3V735.7C0 771.2 28.8 800 64.3 800H735.7C771.2 800 800 771.2 800 735.7V64.3C800 28.8 771.2 0 735.7 0V0ZM735.7 736C287.9 735.9 64 735.8 64 735.7C64.1 287.9 64.2 64 64.3 64C512.1 64.1 736 64.2 736 64.3C735.9 512.1 735.8 736 735.7 736ZM118.6 299.9H237.3V681.7H118.6V299.9ZM178 247.7C215.9 247.7 246.8 216.9 246.8 178.9C246.8 169.865 245.02 160.919 241.563 152.571C238.105 144.224 233.038 136.64 226.649 130.251C220.26 123.862 212.676 118.795 204.329 115.337C195.981 111.88 187.035 110.1 178 110.1C168.965 110.1 160.019 111.88 151.671 115.337C143.324 118.795 135.74 123.862 129.351 130.251C122.962 136.64 117.895 144.224 114.437 152.571C110.98 160.919 109.2 169.865 109.2 178.9C109.1 216.9 139.9 247.7 178 247.7ZM430.3 492.8C430.3 443 439.8 394.8 501.5 394.8C562.3 394.8 563.2 451.7 563.2 496V681.7H681.8V472.3C681.8 369.5 659.6 290.4 539.5 290.4C481.8 290.4 443.1 322.1 427.2 352.1H425.6V299.9H311.7V681.7H430.3V492.8Z" fill="black"/>
</svg>
