<svg width="1319" height="555" viewBox="0 0 1319 555" fill="none" xmlns="http://www.w3.org/2000/svg">
<path d="M167.584 437.841C170.856 438.059 174.238 438.168 177.728 438.168H188.527C229.54 438.168 259.101 425.297 277.208 399.554C285.279 387.774 291.606 374.357 296.187 359.304C300.768 344.033 304.041 333.671 306.004 328.217C310.149 316.436 315.276 306.619 321.384 298.766H342V465.001H167.584V437.841Z" fill="#E18925"/>
<path d="M329.199 85.2339V104.541C325.272 107.159 321.018 109.013 316.436 110.104C311.637 111.195 307.165 112.503 303.02 114.031C292.766 117.303 286.985 123.302 285.676 132.029C284.149 140.755 283.386 151.99 283.386 165.734L283.386 470.062C283.386 495.587 286.222 510.64 291.894 515.221C296.475 518.93 302.911 521.766 311.201 523.729C319.273 525.911 325.272 528.31 329.199 530.928V550.235H153.473V530.928C158.273 528.31 163.181 526.347 168.199 525.038C173.217 523.947 177.907 522.638 182.27 521.111C192.523 517.402 198.196 511.512 199.286 503.44C200.813 494.714 201.577 483.806 201.577 470.717L201.577 85.2339L329.199 85.2339Z" fill="#F7B553"/>
<path d="M174.416 112.394C171.144 112.176 167.763 112.067 164.272 112.067H153.473C112.46 112.067 82.8996 124.938 64.7926 150.681C56.7208 162.461 50.3942 175.878 45.8129 190.931C41.2316 206.202 37.9593 216.564 35.9959 222.018C31.8509 233.799 26.7242 243.616 20.6158 251.469H1.45328e-05L0 85.2339L174.416 85.2339V112.394Z" fill="#E18925"/>
<path d="M12.8015 465.001V445.694C16.7283 443.076 20.9824 441.222 25.5637 440.131C30.3631 439.04 34.8353 437.732 38.9803 436.204C49.2337 432.932 55.0149 426.933 56.3238 418.207C57.8509 409.48 58.6144 398.245 58.6144 384.501V80.1726C58.6144 54.6483 55.7784 39.5955 50.1063 35.0142C45.525 31.3055 39.0894 28.4695 30.7994 26.506C22.7276 24.3245 16.7283 21.9248 12.8015 19.3069V0H140.423C140.423 26.5532 140.423 52.3539 140.423 79.5181V465.001H12.8015Z" fill="#F7B553"/>
<path d="M231.077 286.354C229.518 290.776 273.52 290.918 275.817 290.69C279.317 284.301 281.068 275.402 281.505 272.094C279.864 272.094 232.635 281.933 231.077 286.354Z" fill="#E18925"/>
<path d="M216.09 261.256C217.02 268.088 281.396 277.228 282.271 266.732C283.146 256.236 282.599 241.861 281.286 234.788C280.159 235.82 215.362 255.904 216.09 261.256Z" fill="#E18925"/>
<path d="M202.745 230.567C207.678 237.672 282.271 239.922 280.083 227.372C277.895 214.823 274.723 202.502 269.8 192.462C268.673 193.495 195.773 220.524 202.745 230.567Z" fill="#E18925"/>
<path d="M110.923 286.354C112.482 290.776 68.4803 290.918 66.1831 290.69C62.6826 284.301 60.9324 275.402 60.4949 272.094C62.1357 272.094 109.365 281.933 110.923 286.354Z" fill="#E18925"/>
<path d="M125.91 261.256C124.98 268.088 60.6043 277.228 59.7292 266.732C58.8541 256.236 59.4011 241.861 60.7137 234.788C61.841 235.82 126.638 255.904 125.91 261.256Z" fill="#E18925"/>
<path d="M139.255 230.567C134.322 237.672 59.7292 239.922 61.917 227.372C64.1047 214.823 67.2771 202.502 72.1995 192.462C73.3268 193.495 146.227 220.524 139.255 230.567Z" fill="#E18925"/>
<path d="M377 295.75C381.688 295.75 385.254 295.343 387.7 294.528C390.146 293.51 391.878 291.983 392.897 289.947C394.12 287.707 394.833 284.958 395.037 281.7C395.241 278.442 395.343 274.471 395.343 269.788V117.071C395.343 112.387 395.241 108.417 395.037 105.159C394.833 101.901 394.12 99.2536 392.897 97.2174C391.878 95.1812 390.146 93.654 387.7 92.6359C385.254 91.6178 381.688 91.1087 377 91.1087V86.5272H464.128V91.1087C459.644 91.1087 456.078 91.6178 453.428 92.6359C450.982 93.654 449.148 95.1812 447.925 97.2174C446.906 99.2536 446.295 101.901 446.091 105.159C445.887 108.417 445.785 112.387 445.785 117.071V292.696H511.513C516.405 292.696 520.175 291.474 522.825 289.03C525.678 286.587 527.716 283.431 528.939 279.562C530.162 275.693 530.875 271.315 531.079 266.428C531.283 261.338 531.385 256.349 531.385 251.462H540.556L554.865 300.332H377V295.75Z" fill="#F7B553"/>
<path d="M527.339 262.152C527.339 251.767 530.294 243.622 536.204 237.717C542.115 231.609 549.35 227.129 557.91 224.278C566.674 221.224 575.947 219.391 585.73 218.78C595.513 217.966 604.276 217.559 612.021 217.559C614.467 217.559 616.709 217.559 618.747 217.559C620.989 217.559 623.129 217.457 625.167 217.253V208.396C625.167 196.382 624.352 186.608 622.721 179.074C621.294 171.336 619.154 165.228 616.301 160.748C613.448 156.268 609.881 153.214 605.601 151.585C601.525 149.752 596.837 148.836 591.538 148.836C587.258 148.836 583.59 149.345 580.533 150.363C582.978 154.639 584.609 158.915 585.424 163.191C586.443 167.467 586.953 171.133 586.953 174.187C586.953 182.128 584.711 188.339 580.227 192.818C575.743 197.095 570.24 199.233 563.719 199.233C556.993 199.233 551.49 197.196 547.21 193.124C543.134 188.848 541.096 183.452 541.096 176.936C541.096 172.66 542.115 168.486 544.153 164.413C546.395 160.341 549.758 156.777 554.241 153.723C558.725 150.465 564.432 147.92 571.361 146.087C578.495 144.051 586.953 143.033 596.736 143.033C609.168 143.033 620.173 144.662 629.752 147.92C639.331 151.178 647.382 155.759 653.904 161.664C660.629 167.366 665.623 174.187 668.884 182.128C672.348 190.07 674.081 198.825 674.081 208.396V269.483C674.081 273.351 674.794 276.406 676.221 278.646C677.647 280.886 679.584 282.005 682.029 282.005C684.271 282.005 686.921 281.089 689.978 279.257C693.239 277.22 696.5 274.573 699.761 271.315C699.761 275.184 698.742 278.951 696.703 282.616C694.665 286.282 691.914 289.54 688.449 292.39C684.984 295.241 676.526 294.575 676.526 299.415C676.526 300.546 674.099 300.332 663.758 300.332C655.81 300.332 648.197 299.517 642.287 294.834C636.376 290.15 632.198 284.245 629.752 277.119C625.269 285.671 619.154 292.492 611.41 297.583C603.869 302.47 595.207 304.913 585.424 304.913C566.266 304.913 551.796 301.044 542.013 293.307C532.23 285.365 527.339 274.98 527.339 262.152ZM597.041 293.612C600.506 293.612 603.665 292.797 606.518 291.169C609.575 289.54 612.225 287.503 614.467 285.06C616.913 282.616 618.951 280.071 620.581 277.424C622.415 274.573 623.944 271.926 625.167 269.483V225.195C620.479 225.195 615.995 225.296 611.715 225.5C607.435 225.704 604.582 225.907 603.155 226.111C595.818 227.129 590.01 231.303 585.73 238.634C581.45 245.964 579.31 255.127 579.31 266.123C579.31 276.915 581.144 284.245 584.813 288.114C588.481 291.779 592.557 293.612 597.041 293.612Z" fill="#F7B553"/>
<path d="M708.712 155.25C703.209 155.25 699.031 156.472 696.178 158.915C693.325 161.359 691.185 164.515 689.758 168.384C688.331 172.253 687.516 176.732 687.312 181.823C687.109 186.71 687.007 191.597 687.007 196.484H679.364V147.614H819.686V155.25L732.558 292.696H789.115C794.414 292.696 798.592 291.474 801.649 289.03C804.91 286.587 807.253 283.431 808.68 279.562C810.311 275.693 811.33 271.315 811.737 266.428C812.145 261.338 812.349 256.349 812.349 251.462H819.991V300.332L672.929 300.332L676.307 292.696L763.435 155.25H708.712Z" fill="#F7B553"/>
<path d="M825.177 178.768C823.139 174.696 820.999 171.743 818.757 169.911C816.719 168.078 814.477 167.162 812.031 167.162C809.585 167.162 806.936 168.078 804.083 169.911C801.433 171.54 798.682 173.78 795.828 176.63C795.828 172.354 796.949 168.384 799.191 164.718C801.433 160.85 804.49 157.592 808.362 154.945C812.235 152.094 814.794 149.04 819.686 147.614C825.276 147.614 832.307 147.614 838.014 147.614C846.778 147.614 853.812 148.225 859.722 152.501C865.633 156.777 870.83 163.802 875.313 173.576L907.413 243.215L938.902 162.58C939.717 160.748 940.124 159.119 940.124 157.693C940.124 156.472 939.513 155.454 938.29 154.639C937.067 153.825 935.539 153.316 933.705 153.112C932.074 152.705 930.24 152.501 928.202 152.501C926.164 152.297 924.329 152.196 922.699 152.196H920.253V147.614H976.094L969.167 152.196C962.238 152.196 959.534 153.825 956.68 155.25C951.637 162.377 949.703 158.304 948.073 162.58L887.236 318.658C883.771 327.821 880.307 335.355 876.842 341.26C873.377 347.369 869.709 352.255 865.836 355.921C862.168 359.586 858.295 362.131 854.219 363.557C850.143 365.186 845.761 366 841.074 366C831.291 366 823.546 363.455 817.84 358.364C812.133 353.274 809.28 346.656 809.28 338.511C809.28 330.162 811.827 323.952 816.922 319.879C822.018 316.011 827.622 314.076 833.737 314.076C840.666 314.076 845.965 316.214 849.634 320.49C853.506 324.766 855.442 329.959 855.442 336.067C855.442 339.529 854.831 342.991 853.608 346.452C852.385 349.914 850.347 353.375 847.494 356.837C853.2 355.819 858.397 352.357 863.085 346.452C867.976 340.547 872.97 331.282 878.065 318.658L883.568 304.913L825.177 178.768Z" fill="#F7B553"/>
<path d="M1007.26 143.033C1017.25 143.033 1025.7 144.051 1032.63 146.087C1039.77 147.92 1045.58 150.465 1050.06 153.723C1054.54 156.777 1057.8 160.341 1059.84 164.413C1061.88 168.486 1062.9 172.66 1062.9 176.936C1062.9 183.452 1060.76 188.848 1056.48 193.124C1052.4 197.196 1047 199.233 1040.28 199.233C1033.75 199.233 1028.25 197.095 1023.77 192.818C1019.28 188.339 1017.04 182.128 1017.04 174.187C1017.04 171.133 1017.45 167.569 1018.27 163.497C1019.28 159.424 1021.02 155.25 1023.46 150.974C1021.02 149.956 1018.27 149.447 1015.21 149.447C1011.34 149.447 1007.06 150.567 1002.37 152.807C997.884 155.046 993.706 158.915 989.834 164.413C985.961 169.911 982.701 177.445 980.051 187.015C977.402 196.382 976.077 208.396 976.077 223.057C976.077 237.717 977.402 249.731 980.051 259.098C982.701 268.465 986.063 275.897 990.139 281.395C994.216 286.689 998.598 290.456 1003.29 292.696C1007.97 294.732 1012.46 295.75 1016.74 295.75C1023.87 295.75 1031.72 293.51 1040.28 289.03C1048.84 284.347 1056.68 278.442 1063.82 271.315C1063.82 275.184 1062.7 279.155 1060.45 283.227C1058.42 287.096 1055.05 290.659 1050.36 293.917C1045.68 297.175 1039.66 299.822 1032.33 301.859C1025.19 303.895 1016.53 304.913 1006.34 304.913C980.051 304.913 959.772 297.99 945.505 284.143C931.239 270.093 924.106 250.037 924.106 223.973C924.106 198.52 931.137 178.667 945.2 164.413C959.263 150.159 979.949 143.033 1007.26 143.033Z" fill="#F7B553"/>
<path d="M1042.8 262.152C1042.8 251.767 1045.75 243.622 1051.66 237.717C1057.57 231.609 1064.81 227.129 1073.37 224.278C1082.13 221.224 1091.41 219.391 1101.19 218.78C1110.97 217.966 1119.74 217.559 1127.48 217.559C1129.93 217.559 1132.17 217.559 1134.21 217.559C1136.45 217.559 1138.59 217.457 1140.63 217.253V208.396C1140.63 196.382 1139.81 186.608 1138.18 179.074C1136.75 171.336 1134.61 165.228 1131.76 160.748C1128.91 156.268 1125.34 153.214 1121.06 151.585C1116.98 149.752 1112.3 148.836 1107 148.836C1102.72 148.836 1099.05 149.345 1095.99 150.363C1098.44 154.639 1100.07 158.915 1100.88 163.191C1101.9 167.467 1102.41 171.133 1102.41 174.187C1102.41 182.128 1100.17 188.339 1095.69 192.818C1091.2 197.095 1085.7 199.233 1079.18 199.233C1072.45 199.233 1066.95 197.196 1062.67 193.124C1058.59 188.848 1056.56 183.452 1056.56 176.936C1056.56 172.66 1057.57 168.486 1059.61 164.413C1061.85 160.341 1065.22 156.777 1069.7 153.723C1074.18 150.465 1079.89 147.92 1086.82 146.087C1093.95 144.051 1102.41 143.033 1112.2 143.033C1124.63 143.033 1135.63 144.662 1145.21 147.92C1154.79 151.178 1162.84 155.759 1169.36 161.664C1176.09 167.366 1181.08 174.187 1184.34 182.128C1187.81 190.07 1189.54 198.825 1189.54 208.396V269.483C1189.54 273.351 1190.25 276.406 1191.68 278.646C1193.11 280.886 1195.04 282.005 1197.49 282.005C1199.73 282.005 1202.38 281.089 1205.44 279.257C1208.7 277.22 1211.96 274.573 1215.22 271.315C1215.22 275.184 1214.2 278.951 1212.16 282.616C1210.12 286.282 1207.37 289.54 1203.91 292.39C1200.44 295.241 1196.47 297.583 1191.99 299.415C1187.71 301.044 1183.22 301.859 1178.53 301.859C1170.59 301.859 1163.66 299.517 1157.75 294.834C1151.84 290.15 1147.66 284.245 1145.21 277.119C1140.73 285.671 1134.61 292.492 1126.87 297.583C1119.33 302.47 1110.67 304.913 1100.88 304.913C1081.73 304.913 1067.26 301.044 1057.47 293.307C1047.69 285.365 1042.8 274.98 1042.8 262.152ZM1112.5 293.612C1115.97 293.612 1119.12 292.797 1121.98 291.169C1125.04 289.54 1127.68 287.503 1129.93 285.06C1132.37 282.616 1134.41 280.071 1136.04 277.424C1137.87 274.573 1139.4 271.926 1140.63 269.483V225.195C1135.94 225.195 1131.46 225.296 1127.18 225.5C1122.9 225.704 1120.04 225.907 1118.62 226.111C1111.28 227.129 1105.47 231.303 1101.19 238.634C1096.91 245.964 1094.77 255.127 1094.77 266.123C1094.77 276.915 1096.6 284.245 1100.27 288.114C1103.94 291.779 1108.02 293.612 1112.5 293.612Z" fill="#F7B553"/>
<path d="M1216.59 85C1220.87 85 1225.15 85.6109 1229.43 86.8326C1233.71 88.0544 1237.48 89.9888 1240.74 92.6359C1244.2 95.0794 1246.95 98.2355 1248.99 102.104C1251.03 105.973 1252.05 110.453 1252.05 115.543V147.614H1297.91V155.25H1252.05V260.625C1252.05 263.272 1252.15 266.632 1252.35 270.704C1252.56 274.573 1253.37 278.34 1254.8 282.005C1256.23 285.671 1258.47 288.827 1261.53 291.474C1264.79 294.121 1269.27 295.445 1274.98 295.445C1282.31 295.445 1289.65 293.205 1296.99 288.725C1304.53 284.245 1311.87 278.442 1319 271.315C1319 275.184 1318.08 279.155 1316.25 283.227C1314.41 287.096 1311.36 290.659 1307.08 293.917C1302.8 297.175 1297.19 299.822 1290.26 301.859C1283.33 303.895 1274.77 304.913 1264.58 304.913C1246.24 304.913 1231.36 301.248 1219.95 293.917C1208.74 286.587 1203.13 275.49 1203.13 260.625V155.25H1184.79V147.614H1203.13V115.543C1203.13 111.675 1202.42 109.028 1201 107.602C1199.57 105.973 1197.84 105.159 1195.8 105.159C1193.15 105.159 1190.19 106.177 1186.93 108.213C1183.67 110.046 1180.41 112.591 1177.15 115.849C1177.15 111.98 1178.17 108.213 1180.21 104.548C1182.45 100.883 1185.3 97.6246 1188.77 94.7739C1192.44 91.7196 1196.61 89.3779 1201.3 87.7489C1206.19 85.9163 1211.29 85 1216.59 85Z" fill="#F7B553"/>
<path d="M376.6 545.5C381.2 545.5 384.7 545.1 387.1 544.3C389.5 543.3 391.2 541.8 392.2 539.8C393.4 537.6 394.1 534.9 394.3 531.7C394.5 528.5 394.6 524.6 394.6 520V370C394.6 365.4 394.5 361.5 394.3 358.3C394.1 355.1 393.4 352.5 392.2 350.5C391.2 348.5 389.5 347 387.1 346C384.7 345 381.2 344.5 376.6 344.5V340H462.1V344.5C457.7 344.5 454.2 345 451.6 346C449.2 347 447.4 348.5 446.2 350.5C445.2 352.5 444.6 355.1 444.4 358.3C444.2 361.5 444.1 365.4 444.1 370V542.5H508.6C513.4 542.5 517.1 541.3 519.7 538.9C522.5 536.5 524.5 533.4 525.7 529.6C526.9 525.8 527.6 521.5 527.8 516.7C528 511.7 528.1 506.8 528.1 502H537.1L555 550H376.6V545.5Z" fill="#E18925"/>
<path d="M527.13 512.5C527.13 502.3 530.03 494.3 535.83 488.5C541.63 482.5 548.73 478.1 557.13 475.3C565.73 472.3 574.83 470.5 584.43 469.9C594.03 469.1 602.63 468.7 610.23 468.7C612.63 468.7 614.83 468.7 616.83 468.7C619.03 468.7 621.13 468.6 623.13 468.4V459.7C623.13 447.9 622.33 438.3 620.73 430.9C619.33 423.3 617.23 417.3 614.43 412.9C611.63 408.5 608.13 405.5 603.93 403.9C599.93 402.1 595.33 401.2 590.13 401.2C585.93 401.2 582.33 401.7 579.33 402.7C581.73 406.9 583.33 411.1 584.13 415.3C585.13 419.5 585.63 423.1 585.63 426.1C585.63 433.9 583.43 440 579.03 444.4C574.63 448.6 569.23 450.7 562.83 450.7C556.23 450.7 550.83 448.7 546.63 444.7C542.63 440.5 540.63 435.2 540.63 428.8C540.63 424.6 541.63 420.5 543.63 416.5C545.83 412.5 549.13 409 553.53 406C557.93 402.8 563.53 400.3 570.33 398.5C577.33 396.5 585.63 395.5 595.23 395.5C607.43 395.5 618.23 397.1 627.63 400.3C637.03 403.5 644.93 408 651.33 413.8C657.93 419.4 662.83 426.1 666.03 433.9C669.43 441.7 671.13 450.3 671.13 459.7V519.7C671.13 523.5 671.83 526.5 673.23 528.7C674.63 530.9 676.53 532 678.93 532C681.13 532 683.73 531.1 686.73 529.3C689.93 527.3 693.13 524.7 696.33 521.5C696.33 525.3 707.397 547.114 705.397 550.714C700.5 552.5 665.512 551.5 660.33 551.5C652.53 551.5 645.73 549.2 639.93 544.6C634.13 540 630.03 534.2 627.63 527.2C623.23 535.6 617.23 542.3 609.63 547.3C602.23 552.1 593.73 554.5 584.13 554.5C565.33 554.5 551.13 550.7 541.53 543.1C531.93 535.3 527.13 525.1 527.13 512.5ZM595.53 543.4C598.93 543.4 602.03 542.6 604.83 541C607.83 539.4 610.43 537.4 612.63 535C615.03 532.6 617.03 530.1 618.63 527.5C620.43 524.7 621.93 522.1 623.13 519.7V476.2C618.53 476.2 614.13 476.3 609.93 476.5C605.73 476.7 602.93 476.9 601.53 477.1C594.33 478.1 588.63 482.2 584.43 489.4C580.23 496.6 578.13 505.6 578.13 516.4C578.13 527 579.93 534.2 583.53 538C587.13 541.6 591.13 543.4 595.53 543.4Z" fill="#E18925"/>
<path d="M702.079 338.2C706.279 338.2 710.479 338.8 714.679 340C718.879 341.2 722.579 343.1 725.779 345.7C729.179 348.1 731.879 351.2 733.879 355C735.879 358.8 736.879 363.2 736.879 368.2V407.5C738.479 406.3 739.979 405.2 741.379 404.2C742.979 403.2 744.579 402.3 746.179 401.5C749.179 399.9 752.879 398.5 757.279 397.3C761.679 396.1 766.879 395.5 772.879 395.5C782.279 395.5 790.879 397.2 798.679 400.6C806.679 404 813.479 409 819.079 415.6C824.879 422.2 829.379 430.5 832.579 440.5C835.779 450.3 837.379 461.8 837.379 475C837.379 488.2 835.779 499.8 832.579 509.8C829.379 519.6 825.079 527.8 819.679 534.4C814.279 541 807.879 546 800.479 549.4C793.279 552.8 785.479 554.5 777.079 554.5C766.679 554.5 757.579 552.1 749.779 547.3C742.179 542.3 736.179 535.3 731.779 526.3C731.579 526.5 731.479 526.7 731.479 526.9C731.479 527.1 731.379 527.3 731.179 527.5C730.379 529.9 728.979 532.5 726.979 535.3C724.979 538.1 722.579 540.7 719.779 543.1C716.979 545.5 713.779 547.5 710.179 549.1C706.579 550.7 702.679 551.5 698.479 551.5C695.479 551.5 692.279 551 688.879 550V368.2C688.879 364.4 688.179 361.8 686.779 360.4C685.379 358.8 683.679 358 681.679 358C679.079 358 676.179 359 672.979 361C669.779 362.8 666.579 365.3 663.379 368.5C663.379 364.7 664.379 361 666.379 357.4C668.579 353.8 671.379 350.6 674.779 347.8C678.379 344.8 682.479 342.5 687.079 340.9C691.879 339.1 696.879 338.2 702.079 338.2ZM736.879 417.4V519.7C738.079 522.3 739.479 525.1 741.079 528.1C742.879 530.9 744.779 533.5 746.779 535.9C748.979 538.1 751.379 540 753.979 541.6C756.579 543 759.479 543.7 762.679 543.7C765.679 543.7 768.579 542.8 771.379 541C774.179 539.2 776.679 535.8 778.879 530.8C781.079 525.6 782.879 518.5 784.279 509.5C785.679 500.3 786.379 488.4 786.379 473.8C786.379 459.4 785.679 447.8 784.279 439C782.879 430 780.979 423 778.579 418C776.379 413 773.679 409.6 770.479 407.8C767.479 406 764.279 405.1 760.879 405.1C755.679 405.1 751.179 406.4 747.379 409C743.579 411.6 740.079 414.4 736.879 417.4Z" fill="#E18925"/>
<path d="M872.709 507.1C872.709 512.9 871.009 518.9 867.609 525.1C867.209 525.9 866.809 526.8 866.409 527.8C866.009 528.6 865.809 529.6 865.809 530.8C865.809 533.4 866.709 535.6 868.509 537.4C870.309 539.2 872.609 540.7 875.409 541.9C878.209 542.9 881.209 543.7 884.409 544.3C887.609 544.7 890.609 544.9 893.409 544.9C900.409 544.9 906.409 543.4 911.409 540.4C916.409 537.4 918.909 532.1 918.909 524.5C918.909 521.1 918.309 518.1 917.109 515.5C916.109 512.9 914.309 510.4 911.709 508C909.109 505.6 905.809 503.2 901.809 500.8C897.809 498.4 892.909 495.7 887.109 492.7C876.509 487.3 867.609 482.3 860.409 477.7C853.409 473.1 847.809 468.7 843.609 464.5C839.409 460.3 836.409 456.2 834.609 452.2C832.809 448 831.909 443.6 831.909 439C831.909 432.6 833.409 426.8 836.409 421.6C839.409 416.2 843.709 411.6 849.309 407.8C854.909 403.8 861.609 400.8 869.409 398.8C877.409 396.6 886.309 395.5 896.109 395.5C904.909 395.5 913.309 396.4 921.309 398.2C929.509 400 936.609 402.7 942.609 406.3C948.809 409.9 953.709 414.4 957.309 419.8C960.909 425 962.709 431 962.709 437.8C962.709 445 960.709 450.9 956.709 455.5C952.709 459.9 947.409 462.1 940.809 462.1C934.409 462.1 929.009 460.1 924.609 456.1C920.209 452.1 918.009 446.6 918.009 439.6C918.009 435.4 918.609 431.7 919.809 428.5C921.209 425.3 922.409 422.9 923.409 421.3C925.009 418.1 925.809 416.1 925.809 415.3C925.809 413.3 923.809 410.8 919.809 407.8C915.809 404.8 910.709 403.3 904.509 403.3C898.109 403.3 892.609 405.3 888.009 409.3C883.609 413.1 881.409 418 881.409 424C881.409 428 882.409 431.7 884.409 435.1C886.409 438.3 888.809 441.2 891.609 443.8C894.409 446.2 897.309 448.3 900.309 450.1C903.509 451.9 906.209 453.4 908.409 454.6C920.409 460.8 930.209 466.5 937.809 471.7C945.409 476.7 951.409 481.3 955.809 485.5C960.209 489.7 963.209 493.7 964.809 497.5C966.609 501.3 967.509 505.2 967.509 509.2C967.509 515.8 965.609 521.9 961.809 527.5C958.009 533.1 952.809 537.9 946.209 541.9C939.609 545.9 931.909 549 923.109 551.2C914.309 553.4 904.909 554.5 894.909 554.5C887.109 554.5 879.109 553.7 870.909 552.1C862.909 550.5 855.509 548 848.709 544.6C842.109 541 836.709 536.4 832.509 530.8C828.309 525 826.209 518 826.209 509.8C826.209 501.8 828.309 495.4 832.509 490.6C836.709 485.6 842.609 483.1 850.209 483.1C857.809 483.1 863.409 485.4 867.009 490C870.809 494.6 872.709 500.3 872.709 507.1Z" fill="#E18925"/>
</svg>
