<svg width="342" height="551" viewBox="0 0 342 551" fill="none" xmlns="http://www.w3.org/2000/svg">
<path d="M167.584 437.841C170.856 438.059 174.238 438.168 177.728 438.168H188.527C229.54 438.168 259.101 425.297 277.208 399.554C285.279 387.774 291.606 374.357 296.187 359.304C300.768 344.033 304.041 333.671 306.004 328.217C310.149 316.436 315.276 306.619 321.384 298.766H342V465.001H167.584V437.841Z" fill="#E18925"/>
<path d="M329.199 85.2339V104.541C325.272 107.159 321.018 109.013 316.436 110.104C311.637 111.195 307.165 112.503 303.02 114.031C292.766 117.303 286.985 123.302 285.676 132.029C284.149 140.755 283.386 151.99 283.386 165.734L283.386 470.062C283.386 495.587 286.222 510.64 291.894 515.221C296.475 518.93 302.911 521.766 311.201 523.729C319.273 525.911 325.272 528.31 329.199 530.928V550.235H153.473V530.928C158.273 528.31 163.181 526.347 168.199 525.038C173.217 523.947 177.907 522.638 182.27 521.111C192.523 517.402 198.196 511.512 199.286 503.44C200.813 494.714 201.577 483.806 201.577 470.717L201.577 85.2339L329.199 85.2339Z" fill="#F7B553"/>
<path d="M174.416 112.394C171.144 112.176 167.763 112.067 164.272 112.067H153.473C112.46 112.067 82.8996 124.938 64.7926 150.681C56.7208 162.461 50.3942 175.878 45.8129 190.931C41.2316 206.202 37.9593 216.564 35.9959 222.018C31.8509 233.799 26.7242 243.616 20.6158 251.469H1.45328e-05L0 85.2339L174.416 85.2339V112.394Z" fill="#E18925"/>
<path d="M12.8015 465.001V445.694C16.7283 443.076 20.9824 441.222 25.5637 440.131C30.3631 439.041 34.8353 437.732 38.9803 436.204C49.2337 432.932 55.0148 426.933 56.3238 418.207C57.8509 409.48 58.6144 398.245 58.6144 384.501V80.1726C58.6144 54.6483 55.7784 39.5955 50.1063 35.0142C45.525 31.3055 39.0894 28.4695 30.7994 26.506C22.7276 24.3245 16.7283 21.9248 12.8015 19.3069V0H140.423C140.423 26.5532 140.423 52.3539 140.423 79.5181V465.001H12.8015Z" fill="#F7B553"/>
<path d="M231.077 286.354C229.518 290.776 273.52 290.918 275.817 290.69C279.317 284.301 281.068 275.402 281.505 272.094C279.864 272.094 232.635 281.933 231.077 286.354Z" fill="#E18925"/>
<path d="M216.09 261.256C217.02 268.088 281.396 277.228 282.271 266.732C283.146 256.236 282.599 241.861 281.286 234.788C280.159 235.82 215.362 255.904 216.09 261.256Z" fill="#E18925"/>
<path d="M202.745 230.567C207.678 237.672 282.271 239.922 280.083 227.372C277.895 214.823 274.723 202.502 269.8 192.462C268.673 193.495 195.773 220.524 202.745 230.567Z" fill="#E18925"/>
<path d="M110.923 286.354C112.482 290.776 68.4803 290.918 66.1831 290.69C62.6826 284.301 60.9324 275.402 60.4949 272.094C62.1357 272.094 109.365 281.933 110.923 286.354Z" fill="#E18925"/>
<path d="M125.91 261.256C124.98 268.088 60.6043 277.228 59.7292 266.732C58.8541 256.236 59.4011 241.861 60.7137 234.788C61.841 235.82 126.638 255.904 125.91 261.256Z" fill="#E18925"/>
<path d="M139.255 230.567C134.322 237.672 59.7292 239.922 61.917 227.372C64.1047 214.823 67.2771 202.502 72.1995 192.462C73.3268 193.495 146.227 220.524 139.255 230.567Z" fill="#E18925"/>
</svg>
