<svg width="2579" height="558" viewBox="0 0 2579 558" fill="none" xmlns="http://www.w3.org/2000/svg">
<path d="M167.584 437.841C170.856 438.059 174.238 438.168 177.728 438.168H188.527C229.541 438.168 259.101 425.297 277.208 399.554C285.28 387.774 291.606 374.357 296.187 359.304C300.769 344.033 304.041 333.671 306.004 328.217C310.149 316.436 315.276 306.619 321.385 298.766H342V465.001H167.584V437.841Z" fill="#E18925"/>
<path d="M329.199 85.2339V104.541C325.272 107.159 321.018 109.013 316.437 110.104C311.637 111.195 307.165 112.503 303.02 114.031C292.767 117.303 286.986 123.302 285.677 132.029C284.15 140.755 283.386 151.99 283.386 165.734L283.386 470.062C283.386 495.587 286.222 510.64 291.894 515.221C296.475 518.93 302.911 521.766 311.201 523.729C319.273 525.911 325.272 528.31 329.199 530.928V550.235H153.474V530.928C158.273 528.31 163.182 526.347 168.199 525.038C173.217 523.947 177.907 522.638 182.27 521.111C192.524 517.402 198.196 511.512 199.287 503.44C200.814 494.714 201.577 483.806 201.577 470.717L201.577 85.2339L329.199 85.2339Z" fill="#F7B553"/>
<path d="M174.416 112.394C171.144 112.176 167.763 112.067 164.272 112.067H153.473C112.46 112.067 82.8996 124.938 64.7926 150.681C56.7208 162.461 50.3942 175.878 45.8129 190.931C41.2316 206.202 37.9593 216.564 35.9959 222.018C31.8509 233.799 26.7242 243.616 20.6158 251.469H1.45328e-05L0 85.2339L174.416 85.2339V112.394Z" fill="#E18925"/>
<path d="M12.8018 465.001V445.694C16.7286 443.076 20.9826 441.222 25.5639 440.131C30.3634 439.041 34.8356 437.732 38.9806 436.204C49.2339 432.932 55.0151 426.933 56.324 418.207C57.8511 409.48 58.6147 398.245 58.6147 384.501V80.1726C58.6147 54.6483 55.7786 39.5955 50.1066 35.0142C45.5253 31.3055 39.0896 28.4695 30.7997 26.506C22.7279 24.3245 16.7286 21.9248 12.8018 19.3069V0H140.423C140.423 26.5532 140.423 52.3539 140.423 79.5181V465.001H12.8018Z" fill="#F7B553"/>
<path d="M231.077 286.354C229.518 290.776 273.52 290.918 275.817 290.69C279.318 284.301 281.068 275.402 281.506 272.094C279.865 272.094 232.636 281.933 231.077 286.354Z" fill="#E18925"/>
<path d="M216.091 261.256C217.02 268.088 281.396 277.228 282.271 266.732C283.146 256.236 282.599 241.861 281.287 234.788C280.16 235.82 215.363 255.904 216.091 261.256Z" fill="#E18925"/>
<path d="M202.745 230.567C207.678 237.672 282.271 239.922 280.084 227.372C277.896 214.823 274.723 202.502 269.801 192.462C268.674 193.495 195.774 220.524 202.745 230.567Z" fill="#E18925"/>
<path d="M110.923 286.354C112.482 290.776 68.4798 290.918 66.1826 290.69C62.6822 284.301 60.9319 275.402 60.4944 272.094C62.1352 272.094 109.364 281.933 110.923 286.354Z" fill="#E18925"/>
<path d="M125.909 261.256C124.98 268.088 60.6038 277.228 59.7287 266.732C58.8536 256.236 59.4006 241.861 60.7132 234.788C61.8405 235.82 126.637 255.904 125.909 261.256Z" fill="#E18925"/>
<path d="M139.255 230.567C134.322 237.672 59.7287 239.922 61.9165 227.372C64.1042 214.823 67.2766 202.502 72.1991 192.462C73.3263 193.495 146.226 220.524 139.255 230.567Z" fill="#E18925"/>
<path d="M422 458C428.673 458 433.75 457.42 437.231 456.261C440.713 454.812 443.179 452.638 444.629 449.739C446.37 446.551 447.385 442.638 447.675 438C447.966 433.362 448.111 427.71 448.111 421.044V203.652C448.111 196.986 447.966 191.333 447.675 186.696C447.385 182.058 446.37 178.29 444.629 175.391C443.179 172.493 440.713 170.319 437.231 168.87C433.75 167.42 428.673 166.696 422 166.696V160.174H546.026V166.696C539.643 166.696 534.566 167.42 530.794 168.87C527.313 170.319 524.702 172.493 522.961 175.391C521.511 178.29 520.64 182.058 520.35 186.696C520.06 191.333 519.915 196.986 519.915 203.652V453.652H613.478C620.441 453.652 625.808 451.913 629.58 448.435C633.641 444.957 636.543 440.464 638.283 434.957C640.024 429.449 641.039 423.217 641.33 416.261C641.62 409.015 641.765 401.913 641.765 394.957H654.82L675.189 464.522H422V458Z" fill="#F7B553"/>
<path d="M636.005 410.174C636.005 395.391 640.212 383.797 648.626 375.391C657.039 366.696 667.338 360.319 679.523 356.261C691.998 351.913 705.199 349.304 719.124 348.435C733.05 347.275 745.525 346.696 756.55 346.696C760.031 346.696 763.222 346.696 766.124 346.696C769.315 346.696 772.361 346.551 775.262 346.261V333.652C775.262 316.551 774.102 302.638 771.781 291.913C769.75 280.899 766.704 272.203 762.642 265.826C758.581 259.449 753.503 255.101 747.411 252.783C741.609 250.174 734.936 248.87 727.393 248.87C721.3 248.87 716.078 249.594 711.726 251.043C715.208 257.13 717.529 263.217 718.689 269.304C720.14 275.391 720.865 280.609 720.865 284.957C720.865 296.261 717.674 305.101 711.291 311.478C704.909 317.565 697.075 320.609 687.792 320.609C678.218 320.609 670.384 317.71 664.292 311.913C658.49 305.826 655.588 298.145 655.588 288.87C655.588 282.783 657.039 276.841 659.94 271.043C663.132 265.246 667.918 260.174 674.301 255.826C680.684 251.188 688.807 247.565 698.671 244.957C708.825 242.058 720.865 240.609 734.791 240.609C752.488 240.609 768.154 242.928 781.79 247.565C795.426 252.203 806.885 258.725 816.169 267.13C825.743 275.246 832.851 284.957 837.493 296.261C842.425 307.565 844.891 320.029 844.891 333.652V420.609C844.891 426.116 845.906 430.464 847.937 433.652C849.968 436.841 852.724 438.435 856.205 438.435C859.397 438.435 863.168 437.13 867.52 434.522C872.162 431.623 876.804 427.855 881.446 423.217C881.446 428.725 879.995 434.087 877.094 439.304C874.193 444.522 870.276 449.159 865.344 453.217C860.412 457.275 848.372 456.328 848.372 463.217C848.372 464.827 844.917 464.522 830.197 464.522C818.882 464.522 808.046 463.362 799.632 456.696C791.219 450.029 785.271 441.623 781.79 431.478C775.407 443.652 766.704 453.362 755.679 460.609C744.945 467.565 732.615 471.044 718.689 471.044C691.418 471.044 670.82 465.536 656.894 454.522C642.968 443.217 636.005 428.435 636.005 410.174ZM735.226 454.957C740.158 454.957 744.655 453.797 748.716 451.478C753.068 449.159 756.84 446.261 760.031 442.783C763.513 439.304 766.414 435.681 768.735 431.913C771.346 427.855 773.522 424.087 775.262 420.609V357.565C768.59 357.565 762.207 357.71 756.115 358C750.022 358.29 745.96 358.58 743.93 358.87C733.485 360.319 725.217 366.261 719.124 376.696C713.032 387.13 709.986 400.174 709.986 415.826C709.986 431.188 712.597 441.623 717.819 447.13C723.041 452.348 728.843 454.957 735.226 454.957Z" fill="#F7B553"/>
<path d="M894.188 258C886.355 258 880.408 259.739 876.346 263.217C872.284 266.696 869.238 271.188 867.207 276.696C865.176 282.203 864.016 288.58 863.726 295.826C863.436 302.783 863.291 309.739 863.291 316.696H852.411V247.13H1052.16V258L928.132 453.652H1008.64C1016.18 453.652 1022.13 451.913 1026.48 448.435C1031.12 444.957 1034.46 440.464 1036.49 434.957C1038.81 429.449 1040.26 423.217 1040.84 416.261C1041.42 409.015 1041.71 401.913 1041.71 394.957H1052.59V464.522L843.252 464.522L848.059 453.652L972.085 258H894.188Z" fill="#F7B553"/>
<path d="M1059.97 291.478C1057.07 285.681 1054.03 281.478 1050.84 278.87C1047.93 276.261 1044.74 274.957 1041.26 274.957C1037.78 274.957 1034.01 276.261 1029.95 278.87C1026.18 281.188 1022.26 284.377 1018.2 288.435C1018.2 282.348 1019.79 276.696 1022.98 271.478C1026.18 265.971 1030.53 261.333 1036.04 257.565C1041.55 253.507 1045.19 249.159 1052.16 247.13C1060.12 247.13 1070.12 247.13 1078.25 247.13C1090.72 247.13 1100.74 248 1109.15 254.087C1117.56 260.174 1124.96 270.174 1131.34 284.087L1177.04 383.217L1221.86 268.435C1223.02 265.826 1223.6 263.507 1223.6 261.478C1223.6 259.739 1222.73 258.29 1220.99 257.13C1219.25 255.971 1217.07 255.246 1214.46 254.957C1212.14 254.377 1209.53 254.087 1206.63 254.087C1203.73 253.797 1201.12 253.652 1198.8 253.652H1195.31V247.13H1274.8L1264.94 253.652C1255.08 253.652 1251.23 255.971 1247.17 258C1239.99 268.145 1237.24 262.348 1234.92 268.435L1148.31 490.609C1143.38 503.652 1138.45 514.377 1133.52 522.783C1128.59 531.478 1123.36 538.435 1117.85 543.652C1112.63 548.87 1107.12 552.493 1101.32 554.522C1095.51 556.841 1089.28 558 1082.6 558C1068.68 558 1057.65 554.377 1049.53 547.13C1041.41 539.884 1037.34 530.464 1037.34 518.87C1037.34 506.986 1040.97 498.145 1048.22 492.348C1055.48 486.841 1063.46 484.087 1072.16 484.087C1082.02 484.087 1089.57 487.13 1094.79 493.217C1100.3 499.304 1103.06 506.696 1103.06 515.391C1103.06 520.319 1102.19 525.246 1100.45 530.174C1098.7 535.101 1095.8 540.029 1091.74 544.957C1099.87 543.507 1107.26 538.58 1113.94 530.174C1120.9 521.768 1128.01 508.58 1135.26 490.609L1143.09 471.044L1059.97 291.478Z" fill="#F7B553"/>
<path d="M1319.17 240.609C1333.38 240.609 1345.42 242.058 1355.29 244.957C1365.44 247.565 1373.71 251.188 1380.09 255.826C1386.47 260.174 1391.12 265.246 1394.02 271.043C1396.92 276.841 1398.37 282.783 1398.37 288.87C1398.37 298.145 1395.32 305.826 1389.23 311.913C1383.43 317.71 1375.74 320.609 1366.17 320.609C1356.88 320.609 1349.05 317.565 1342.67 311.478C1336.28 305.101 1333.09 296.261 1333.09 284.957C1333.09 280.609 1333.67 275.536 1334.83 269.739C1336.28 263.942 1338.75 258 1342.23 251.913C1338.75 250.464 1334.83 249.739 1330.48 249.739C1324.97 249.739 1318.88 251.333 1312.2 254.522C1305.82 257.71 1299.87 263.217 1294.36 271.043C1288.85 278.87 1284.21 289.594 1280.44 303.217C1276.66 316.551 1274.78 333.652 1274.78 354.522C1274.78 375.391 1276.66 392.493 1280.44 405.826C1284.21 419.159 1288.99 429.739 1294.8 437.565C1300.6 445.101 1306.84 450.464 1313.51 453.652C1320.18 456.551 1326.56 458 1332.66 458C1342.81 458 1353.98 454.812 1366.17 448.435C1378.35 441.768 1389.52 433.362 1399.67 423.217C1399.67 428.725 1398.08 434.377 1394.89 440.174C1391.99 445.681 1387.2 450.754 1380.53 455.391C1373.85 460.029 1365.3 463.797 1354.85 466.696C1344.7 469.594 1332.37 471.044 1317.86 471.044C1280.44 471.044 1251.57 461.188 1231.26 441.478C1210.95 421.478 1200.8 392.928 1200.8 355.826C1200.8 319.594 1210.81 291.333 1230.83 271.043C1250.84 250.754 1280.29 240.609 1319.17 240.609Z" fill="#F7B553"/>
<path d="M1369.76 410.174C1369.76 395.391 1373.96 383.797 1382.38 375.391C1390.79 366.696 1401.09 360.319 1413.27 356.261C1425.75 351.913 1438.95 349.304 1452.87 348.435C1466.8 347.275 1479.28 346.696 1490.3 346.696C1493.78 346.696 1496.97 346.696 1499.87 346.696C1503.07 346.696 1506.11 346.551 1509.01 346.261V333.652C1509.01 316.551 1507.85 302.638 1505.53 291.913C1503.5 280.899 1500.45 272.203 1496.39 265.826C1492.33 259.449 1487.25 255.101 1481.16 252.783C1475.36 250.174 1468.69 248.87 1461.14 248.87C1455.05 248.87 1449.83 249.594 1445.48 251.043C1448.96 257.13 1451.28 263.217 1452.44 269.304C1453.89 275.391 1454.62 280.609 1454.62 284.957C1454.62 296.261 1451.42 305.101 1445.04 311.478C1438.66 317.565 1430.83 320.609 1421.54 320.609C1411.97 320.609 1404.13 317.71 1398.04 311.913C1392.24 305.826 1389.34 298.145 1389.34 288.87C1389.34 282.783 1390.79 276.841 1393.69 271.043C1396.88 265.246 1401.67 260.174 1408.05 255.826C1414.43 251.188 1422.56 247.565 1432.42 244.957C1442.58 242.058 1454.62 240.609 1468.54 240.609C1486.24 240.609 1501.9 242.928 1515.54 247.565C1529.18 252.203 1540.64 258.725 1549.92 267.13C1559.49 275.246 1566.6 284.957 1571.24 296.261C1576.18 307.565 1578.64 320.029 1578.64 333.652V420.609C1578.64 426.116 1579.66 430.464 1581.69 433.652C1583.72 436.841 1586.47 438.435 1589.96 438.435C1593.15 438.435 1596.92 437.13 1601.27 434.522C1605.91 431.623 1610.55 427.855 1615.2 423.217C1615.2 428.725 1613.75 434.087 1610.84 439.304C1607.94 444.522 1604.03 449.159 1599.09 453.217C1594.16 457.275 1588.51 460.609 1582.12 463.217C1576.03 465.536 1569.65 466.696 1562.97 466.696C1551.66 466.696 1541.8 463.362 1533.38 456.696C1524.97 450.029 1519.02 441.623 1515.54 431.478C1509.16 443.652 1500.45 453.362 1489.43 460.609C1478.7 467.565 1466.37 471.044 1452.44 471.044C1425.17 471.044 1404.57 465.536 1390.64 454.522C1376.72 443.217 1369.76 428.435 1369.76 410.174ZM1468.98 454.957C1473.91 454.957 1478.41 453.797 1482.47 451.478C1486.82 449.159 1490.59 446.261 1493.78 442.783C1497.26 439.304 1500.16 435.681 1502.49 431.913C1505.1 427.855 1507.27 424.087 1509.01 420.609V357.565C1502.34 357.565 1495.96 357.71 1489.86 358C1483.77 358.29 1479.71 358.58 1477.68 358.87C1467.24 360.319 1458.97 366.261 1452.87 376.696C1446.78 387.13 1443.74 400.174 1443.74 415.826C1443.74 431.188 1446.35 441.623 1451.57 447.13C1456.79 452.348 1462.59 454.957 1468.98 454.957Z" fill="#F7B553"/>
<path d="M1617.14 158C1623.23 158 1629.33 158.87 1635.42 160.609C1641.51 162.348 1646.88 165.101 1651.52 168.87C1656.45 172.348 1660.37 176.841 1663.27 182.348C1666.17 187.855 1667.62 194.232 1667.62 201.478V247.13H1732.9V258H1667.62V408C1667.62 411.768 1667.77 416.551 1668.06 422.348C1668.35 427.855 1669.51 433.217 1671.54 438.435C1673.57 443.652 1676.76 448.145 1681.11 451.913C1685.75 455.681 1692.14 457.565 1700.26 457.565C1710.7 457.565 1721.15 454.377 1731.59 448C1742.33 441.623 1752.77 433.362 1762.93 423.217C1762.93 428.725 1761.62 434.377 1759.01 440.174C1756.4 445.681 1752.05 450.754 1745.95 455.391C1739.86 460.029 1731.88 463.797 1722.02 466.696C1712.15 469.594 1699.97 471.044 1685.46 471.044C1659.35 471.044 1638.17 465.826 1621.93 455.391C1605.97 444.957 1597.99 429.159 1597.99 408V258H1571.88V247.13H1597.99V201.478C1597.99 195.971 1596.98 192.203 1594.95 190.174C1592.92 187.855 1590.45 186.696 1587.55 186.696C1583.78 186.696 1579.57 188.145 1574.93 191.043C1570.29 193.652 1565.64 197.275 1561 201.913C1561 196.406 1562.45 191.043 1565.35 185.826C1568.55 180.609 1572.61 175.971 1577.54 171.913C1582.76 167.565 1588.71 164.232 1595.38 161.913C1602.34 159.304 1609.6 158 1617.14 158Z" fill="#F7B553"/>
<path d="M1759 463.517C1765.38 463.517 1770.23 462.963 1773.56 461.853C1776.89 460.466 1779.25 458.386 1780.64 455.612C1782.3 452.56 1783.27 448.816 1783.55 444.377C1783.83 439.939 1783.97 434.53 1783.97 428.15V220.105C1783.97 213.725 1783.83 208.316 1783.55 203.878C1783.27 199.44 1782.3 195.834 1780.64 193.06C1779.25 190.286 1776.89 188.205 1773.56 186.818C1770.23 185.431 1765.38 184.738 1759 184.738V178.497H1877.59V184.738C1871.48 184.738 1866.63 185.431 1863.02 186.818C1859.69 188.205 1857.2 190.286 1855.53 193.06C1854.15 195.834 1853.31 199.44 1853.04 203.878C1852.76 208.316 1852.62 213.725 1852.62 220.105V459.356H1942.08C1948.74 459.356 1953.87 457.692 1957.47 454.363C1961.36 451.035 1964.13 446.735 1965.8 441.465C1967.46 436.194 1968.43 430.23 1968.71 423.573C1968.99 416.638 1969.12 409.842 1969.12 403.184H1981.61L2006.43 469.759H1759V463.517Z" fill="#E18925"/>
<path d="M1967.78 417.748C1967.78 403.601 1971.8 392.505 1979.85 384.46C1987.89 376.139 1997.74 370.036 2009.39 366.153C2021.32 361.992 2033.94 359.495 2047.25 358.663C2060.57 357.553 2072.49 356.999 2083.04 356.999C2086.36 356.999 2089.42 356.999 2092.19 356.999C2095.24 356.999 2098.15 356.86 2100.93 356.583V344.516C2100.93 328.15 2099.82 314.835 2097.6 304.571C2095.66 294.031 2092.74 285.709 2088.86 279.606C2084.98 273.503 2080.12 269.343 2074.3 267.123C2068.75 264.627 2062.37 263.379 2055.16 263.379C2049.33 263.379 2044.34 264.072 2040.18 265.459C2043.51 271.284 2045.73 277.11 2046.84 282.935C2048.22 288.76 2048.92 293.753 2048.92 297.914C2048.92 308.732 2045.87 317.193 2039.76 323.295C2033.66 329.121 2026.17 332.033 2017.29 332.033C2008.14 332.033 2000.65 329.259 1994.82 323.712C1989.28 317.886 1986.5 310.535 1986.5 301.659C1986.5 295.834 1987.89 290.147 1990.66 284.599C1993.72 279.051 1998.29 274.197 2004.39 270.036C2010.5 265.598 2018.26 262.13 2027.7 259.634C2037.4 256.86 2048.92 255.473 2062.23 255.473C2079.15 255.473 2094.13 257.692 2107.17 262.13C2120.21 266.569 2131.16 272.81 2140.04 280.854C2149.19 288.621 2155.99 297.914 2160.43 308.732C2165.14 319.551 2167.5 331.479 2167.5 344.516V427.734C2167.5 433.004 2168.47 437.165 2170.41 440.216C2172.36 443.268 2174.99 444.793 2178.32 444.793C2181.37 444.793 2184.98 443.545 2189.14 441.049C2193.58 438.275 2198.01 434.669 2202.45 430.23C2202.45 435.501 2217.8 465.755 2215.03 470.748C2208.24 473.226 2159.71 471.839 2152.52 471.839C2141.7 471.839 2132.27 468.649 2124.23 462.269C2116.18 455.889 2110.5 447.845 2107.17 438.136C2101.07 449.786 2092.74 459.079 2082.2 466.014C2071.94 472.671 2060.15 476 2046.84 476C2020.76 476 2001.07 470.73 1987.75 460.189C1974.44 449.37 1967.78 435.223 1967.78 417.748ZM2062.65 460.605C2067.36 460.605 2071.66 459.495 2075.55 457.276C2079.71 455.057 2083.31 452.283 2086.36 448.954C2089.69 445.626 2092.47 442.158 2094.69 438.552C2097.18 434.669 2099.26 431.062 2100.93 427.734V367.401C2094.55 367.401 2088.44 367.54 2082.62 367.817C2076.79 368.094 2072.91 368.372 2070.97 368.649C2060.98 370.036 2053.08 375.723 2047.25 385.709C2041.43 395.695 2038.51 408.178 2038.51 423.157C2038.51 437.859 2041.01 447.845 2046 453.115C2051 458.108 2056.54 460.605 2062.65 460.605Z" fill="#E18925"/>
<path d="M2210.43 176C2216.25 176 2222.08 176.832 2227.9 178.497C2233.73 180.161 2238.86 182.796 2243.3 186.402C2248.01 189.731 2251.76 194.031 2254.53 199.301C2257.31 204.571 2258.69 210.674 2258.69 217.609V272.117C2260.91 270.452 2262.99 268.926 2264.93 267.54C2267.15 266.153 2269.37 264.904 2271.59 263.795C2275.75 261.576 2280.88 259.634 2286.99 257.969C2293.09 256.305 2300.3 255.473 2308.62 255.473C2321.66 255.473 2333.59 257.831 2344.41 262.546C2355.5 267.262 2364.93 274.197 2372.7 283.351C2380.75 292.505 2386.99 304.017 2391.43 317.886C2395.86 331.479 2398.08 347.429 2398.08 365.736C2398.08 384.044 2395.86 400.133 2391.43 414.003C2386.99 427.595 2381.02 438.968 2373.53 448.122C2366.04 457.276 2357.17 464.211 2346.9 468.927C2336.92 473.642 2326.1 476 2314.45 476C2300.02 476 2287.4 472.671 2276.59 466.014C2266.04 459.079 2257.72 449.37 2251.62 436.888C2251.34 437.165 2251.2 437.442 2251.2 437.72C2251.2 437.997 2251.07 438.275 2250.79 438.552C2249.68 441.881 2247.74 445.487 2244.96 449.37C2242.19 453.254 2238.86 456.86 2234.98 460.189C2231.09 463.517 2226.65 466.291 2221.66 468.51C2216.67 470.73 2211.26 471.839 2205.43 471.839C2201.27 471.839 2196.83 471.146 2192.12 469.759V217.609C2192.12 212.338 2191.15 208.732 2189.21 206.791C2187.26 204.571 2184.91 203.462 2182.13 203.462C2178.53 203.462 2174.5 204.849 2170.07 207.623C2165.63 210.119 2161.19 213.587 2156.75 218.025C2156.75 212.755 2158.14 207.623 2160.91 202.63C2163.96 197.637 2167.85 193.198 2172.56 189.315C2177.56 185.154 2183.24 181.964 2189.62 179.745C2196.28 177.248 2203.21 176 2210.43 176ZM2258.69 285.847V427.734C2260.36 431.34 2262.3 435.223 2264.52 439.384C2267.02 443.268 2269.65 446.874 2272.42 450.203C2275.48 453.254 2278.8 455.889 2282.41 458.108C2286.02 460.05 2290.04 461.021 2294.48 461.021C2298.64 461.021 2302.66 459.773 2306.54 457.276C2310.43 454.779 2313.89 450.064 2316.95 443.129C2320 435.917 2322.49 426.069 2324.44 413.587C2326.38 400.827 2327.35 384.322 2327.35 364.072C2327.35 344.1 2326.38 328.011 2324.44 315.806C2322.49 303.323 2319.86 293.614 2316.53 286.68C2313.48 279.745 2309.73 275.029 2305.3 272.533C2301.13 270.036 2296.7 268.788 2291.98 268.788C2284.77 268.788 2278.53 270.591 2273.26 274.197C2267.99 277.803 2263.13 281.687 2258.69 285.847Z" fill="#E18925"/>
<path d="M2447.08 410.258C2447.08 418.302 2444.73 426.624 2440.01 435.223C2439.46 436.333 2438.9 437.581 2438.35 438.968C2437.79 440.078 2437.51 441.465 2437.51 443.129C2437.51 446.735 2438.76 449.786 2441.26 452.283C2443.76 454.779 2446.95 456.86 2450.83 458.524C2454.71 459.911 2458.87 461.021 2463.31 461.853C2467.75 462.408 2471.91 462.685 2475.79 462.685C2485.5 462.685 2493.82 460.605 2500.76 456.444C2507.69 452.283 2511.16 444.932 2511.16 434.391C2511.16 429.675 2510.33 425.515 2508.67 421.908C2507.28 418.302 2504.78 414.835 2501.18 411.506C2497.57 408.178 2492.99 404.849 2487.44 401.52C2481.9 398.191 2475.1 394.447 2467.06 390.286C2452.35 382.796 2440.01 375.861 2430.02 369.481C2420.32 363.101 2412.55 356.999 2406.72 351.173C2400.9 345.348 2396.74 339.662 2394.24 334.114C2391.74 328.288 2390.5 322.186 2390.5 315.806C2390.5 306.929 2392.58 298.885 2396.74 291.673C2400.9 284.183 2406.86 277.803 2414.63 272.533C2422.4 266.985 2431.69 262.824 2442.51 260.05C2453.6 256.999 2465.95 255.473 2479.54 255.473C2491.74 255.473 2503.39 256.721 2514.49 259.218C2525.86 261.714 2535.71 265.459 2544.03 270.452C2552.63 275.445 2559.43 281.687 2564.42 289.176C2569.41 296.388 2571.91 304.71 2571.91 314.141C2571.91 324.128 2569.14 332.311 2563.59 338.691C2558.04 344.793 2550.69 347.845 2541.54 347.845C2532.66 347.845 2525.17 345.071 2519.07 339.523C2512.96 333.975 2509.91 326.347 2509.91 316.638C2509.91 310.813 2510.75 305.681 2512.41 301.243C2514.35 296.804 2516.02 293.476 2517.4 291.257C2519.62 286.818 2520.73 284.044 2520.73 282.935C2520.73 280.161 2517.96 276.693 2512.41 272.533C2506.86 268.372 2499.79 266.291 2491.19 266.291C2482.31 266.291 2474.68 269.065 2468.3 274.613C2462.2 279.884 2459.15 286.68 2459.15 295.001C2459.15 300.549 2460.54 305.681 2463.31 310.397C2466.09 314.835 2469.41 318.857 2473.3 322.463C2477.18 325.792 2481.2 328.705 2485.36 331.201C2489.8 333.698 2493.55 335.778 2496.6 337.442C2513.24 346.042 2526.83 353.947 2537.38 361.159C2547.92 368.094 2556.24 374.474 2562.34 380.3C2568.44 386.125 2572.6 391.673 2574.82 396.943C2577.32 402.214 2578.57 407.623 2578.57 413.171C2578.57 422.325 2575.93 430.785 2570.66 438.552C2565.39 446.319 2558.18 452.976 2549.03 458.524C2539.87 464.072 2529.19 468.372 2516.99 471.423C2504.78 474.474 2491.74 476 2477.87 476C2467.06 476 2455.96 474.89 2444.59 472.671C2433.49 470.452 2423.23 466.985 2413.8 462.269C2404.64 457.276 2397.15 450.896 2391.33 443.129C2385.5 435.085 2382.59 425.376 2382.59 414.003C2382.59 402.907 2385.5 394.031 2391.33 387.373C2397.15 380.438 2405.34 376.971 2415.88 376.971C2426.42 376.971 2434.19 380.161 2439.18 386.541C2444.45 392.921 2447.08 400.827 2447.08 410.258Z" fill="#E18925"/>
</svg>
