<svg width="234" height="224" viewBox="0 0 234 224" fill="none" xmlns="http://www.w3.org/2000/svg">
<path d="M117 56.0001C105.924 56.0001 95.0973 59.2844 85.8881 65.4378C76.6789 71.5911 69.5013 80.3371 65.2628 90.5698C61.0243 100.802 59.9153 112.062 62.0761 122.925C64.2368 133.788 69.5703 143.766 77.4021 151.598C85.2338 159.43 95.212 164.763 106.075 166.924C116.938 169.085 128.198 167.976 138.43 163.737C148.663 159.499 157.409 152.321 163.562 143.112C169.716 133.903 173 123.076 173 112C173 97.148 167.1 82.9041 156.598 72.4021C146.096 61.9001 131.852 56.0001 117 56.0001V56.0001ZM117 144C110.671 144 104.484 142.123 99.2218 138.607C93.9594 135.091 89.8579 130.093 87.4359 124.246C85.0139 118.399 84.3802 111.965 85.6149 105.757C86.8496 99.5498 89.8973 93.8479 94.3726 89.3727C98.8479 84.8974 104.55 81.8497 110.757 80.615C116.965 79.3802 123.399 80.0139 129.246 82.4359C135.093 84.8579 140.091 88.9595 143.607 94.2218C147.123 99.4842 149 105.671 149 112C148.974 120.479 145.594 128.603 139.598 134.598C133.603 140.594 125.479 143.974 117 144ZM230.4 87.4001C230.038 85.7381 229.324 84.173 228.307 82.8103C227.289 81.4475 225.991 80.3188 224.5 79.5001L201.7 66.9001C200.7 64.9001 199.6 63.0001 198.5 61.2001L198.9 35.2001C198.935 33.4931 198.605 31.7984 197.932 30.2291C197.26 28.6599 196.26 27.2522 195 26.1001C182.722 14.9488 168.195 6.56022 152.4 1.50008C150.775 0.993566 149.061 0.838612 147.371 1.04551C145.681 1.2524 144.055 1.81641 142.6 2.70008L120.3 16.0001H113.7L91.4 2.70008C89.9427 1.82237 88.3166 1.26183 86.628 1.05506C84.9394 0.848286 83.2261 0.999925 81.6 1.50008C65.8046 6.56022 51.278 14.9488 39 26.1001C37.74 27.2522 36.7404 28.6599 36.0678 30.2291C35.3953 31.7984 35.0653 33.4931 35.1 35.2001L35.5 61.2001C34.4 63.0001 33.3 64.9001 32.3 66.9001L9.50003 79.5001C8.01713 80.3289 6.72537 81.4607 5.70884 82.8219C4.69231 84.183 3.97379 85.7429 3.60003 87.4001C0.100609 103.613 0.100609 120.387 3.60003 136.6C3.96176 138.262 4.67556 139.827 5.69332 141.19C6.71108 142.553 8.00915 143.681 9.50003 144.5L32.3 157.1C33.3 159.1 34.4 161 35.5 162.8L35.1 188.8C35.0653 190.507 35.3953 192.202 36.0678 193.771C36.7404 195.34 37.74 196.748 39 197.9C51.278 209.051 65.8046 217.44 81.6 222.5C83.2252 223.007 84.9395 223.162 86.6292 222.955C88.3188 222.748 89.9451 222.184 91.4 221.3L113.7 208H120.3L142.6 221.3C144.452 222.48 146.604 223.104 148.8 223.1C150.025 223.096 151.24 222.894 152.4 222.5C168.195 217.44 182.722 209.051 195 197.9C196.26 196.748 197.26 195.34 197.932 193.771C198.605 192.202 198.935 190.507 198.9 188.8L198.5 162.8C199.6 161 200.7 159.1 201.7 157.1L224.5 144.5C225.983 143.671 227.275 142.539 228.291 141.178C229.308 139.817 230.026 138.257 230.4 136.6C233.899 120.387 233.899 103.613 230.4 87.4001V87.4001ZM207.9 126.3L186.9 137.9C184.732 139.116 182.988 140.965 181.9 143.2C180.317 146.453 178.513 149.594 176.5 152.6C175.109 154.63 174.376 157.039 174.4 159.5L174.8 183.6C167.345 189.6 159.015 194.423 150.1 197.9L129.5 185.5C127.621 184.394 125.481 183.807 123.3 183.8H122.4C118.806 184.1 115.194 184.1 111.6 183.8C109.114 183.609 106.63 184.203 104.5 185.5L83.9 197.9C74.9737 194.446 66.6403 189.621 59.2 183.6L59.6 159.6C59.6254 157.108 58.8931 154.667 57.5 152.6C55.4869 149.594 53.6827 146.453 52.1 143.2C50.9868 140.983 49.2486 139.14 47.1 137.9L26.1 126.3C24.5992 116.826 24.5992 107.174 26.1 97.7001L47.1 86.1001C49.2677 84.884 51.0121 83.0348 52.1 80.8001C53.6827 77.5468 55.4869 74.4061 57.5 71.4001C58.891 69.3698 59.6241 66.961 59.6 64.5001L59.2 40.4001C66.6548 34.4001 74.9848 29.5775 83.9 26.1001L104.5 38.5001C106.625 39.8095 109.113 40.4052 111.6 40.2001C115.194 39.9 118.806 39.9 122.4 40.2001C124.886 40.3913 127.37 39.7967 129.5 38.5001L150.1 26.1001C159.026 29.5543 167.36 34.3789 174.8 40.4001L174.4 64.4001C174.375 66.8923 175.107 69.3334 176.5 71.4001C178.513 74.4061 180.317 77.5468 181.9 80.8001C183.013 83.0172 184.751 84.8597 186.9 86.1001L207.9 97.7001C209.401 107.174 209.401 116.826 207.9 126.3V126.3Z" fill="black"/>
</svg>
