<svg width="20" height="24" viewBox="0 0 20 24" fill="none" xmlns="http://www.w3.org/2000/svg">
<path d="M17.321 5.562C17.1691 5.48345 17.0213 5.39734 16.878 5.304C16.4617 5.02872 16.0799 4.7044 15.741 4.338C14.892 3.367 14.575 2.382 14.459 1.693H14.463C14.366 1.12 14.406 0.75 14.413 0.75H10.548V15.693C10.548 15.893 10.548 16.092 10.54 16.288C10.54 16.312 10.537 16.334 10.536 16.361C10.536 16.371 10.536 16.383 10.533 16.394V16.403C10.4924 16.939 10.3207 17.4568 10.033 17.9109C9.74528 18.365 9.35037 18.7414 8.88301 19.007C8.39544 19.2844 7.84397 19.4298 7.28301 19.429C5.48301 19.429 4.02301 17.961 4.02301 16.148C4.02301 14.334 5.48301 12.866 7.28301 12.866C7.62401 12.866 7.96301 12.92 8.28701 13.026L8.29201 9.09C7.30803 8.96305 6.30841 9.04147 5.35625 9.3203C4.4041 9.59913 3.52008 10.0723 2.76001 10.71C2.09387 11.2885 1.5338 11.9789 1.10501 12.75C0.942013 13.031 0.326013 14.162 0.252013 15.996C0.205013 17.036 0.518013 18.116 0.667013 18.561V18.571C0.760013 18.833 1.12401 19.729 1.71601 20.484C2.19341 21.09 2.75746 21.6224 3.39001 22.064V22.054L3.39901 22.064C5.26901 23.334 7.34401 23.251 7.34401 23.251C7.70301 23.236 8.90601 23.251 10.272 22.604C11.787 21.886 12.649 20.817 12.649 20.817C13.2001 20.1781 13.6384 19.45 13.945 18.664C14.295 17.744 14.411 16.642 14.411 16.202V8.273C14.458 8.301 15.083 8.714 15.083 8.714C15.083 8.714 15.983 9.291 17.386 9.666C18.392 9.933 19.749 9.99 19.749 9.99V6.153C19.274 6.205 18.309 6.055 17.32 5.563L17.321 5.562Z" fill="black"/>
</svg>
