<svg width="24" height="18" viewBox="0 0 24 18" fill="none" xmlns="http://www.w3.org/2000/svg">
<path d="M23.5 3.50701C23.3641 3.02225 23.0994 2.58336 22.734 2.23702C22.3583 1.88002 21.8978 1.62465 21.396 1.49501C19.518 1.00001 11.994 1.00002 11.994 1.00002C8.85734 0.964328 5.72144 1.12129 2.60401 1.47001C2.1022 1.60923 1.64257 1.8703 1.26601 2.23002C0.896007 2.58602 0.628007 3.02502 0.488007 3.50602C0.1517 5.31776 -0.0117011 7.15736 6.83166e-06 9.00002C-0.0119932 10.841 0.151007 12.68 0.488007 14.494C0.625007 14.973 0.892007 15.41 1.26301 15.763C1.63401 16.116 2.09601 16.371 2.60401 16.506C4.50701 17 11.994 17 11.994 17C15.1347 17.0358 18.2746 16.8788 21.396 16.53C21.8978 16.4004 22.3583 16.145 22.734 15.788C23.0993 15.4417 23.3637 15.0028 23.499 14.518C23.8441 12.707 24.0119 10.8666 24 9.02302C24.026 7.17162 23.8584 5.32258 23.5 3.50602V3.50701ZM9.60201 12.424V5.57701L15.862 9.00102L9.60201 12.424Z" fill="black"/>
</svg>
